<svg width="40" height="40" viewBox="0 0 40 40" fill="none" xmlns="http://www.w3.org/2000/svg">
<g clip-path="url(#clip0_213_1775)">
<path fill-rule="evenodd" clip-rule="evenodd" d="M20 40C31.0457 40 40 31.0457 40 20C40 8.9543 31.0457 0 20 0C8.9543 0 0 8.9543 0 20C0 31.0457 8.9543 40 20 40ZM16.8318 12.202C16.1891 12.0678 15.4785 12 14.6999 12H7V28H14.931C15.6532 28.0014 16.374 27.911 17.073 27.7316C17.7678 27.5523 18.386 27.2769 18.9291 26.9026C19.4721 26.5298 19.904 26.0482 20.2247 25.4578C20.5453 24.8675 20.7056 24.1684 20.7056 23.362C20.7056 22.3607 20.4572 21.5048 19.9603 20.7958C19.4635 20.0868 18.711 19.5897 17.7028 19.3058C18.4351 18.9627 18.9897 18.522 19.3638 17.9839C19.7379 17.4458 19.9257 16.7736 19.9257 15.9672C19.9257 15.2201 19.8 14.593 19.5472 14.0846C19.2945 13.5761 18.9392 13.1694 18.4813 12.8629C18.0234 12.5564 17.4746 12.3361 16.8318 12.202ZM15.8237 18.0277C15.4106 18.3257 14.8834 18.4754 14.2421 18.4754L10.5994 18.4782V14.7356H13.9662C14.2782 14.7342 14.5887 14.7611 14.8949 14.8133C15.1925 14.8656 15.4553 14.9588 15.685 15.0929C15.9147 15.2271 16.0981 15.4149 16.2353 15.6536C16.3725 15.8923 16.4418 16.1988 16.4418 16.5716C16.4433 17.2439 16.2367 17.7283 15.8237 18.0277ZM15.4568 25.1641C15.126 25.2319 14.788 25.2658 14.4486 25.2644L10.5994 25.2658V20.8735H14.5179C15.2965 20.8735 15.9233 21.0486 16.3971 21.4003C16.8708 21.7505 17.1077 22.3381 17.1077 23.1586C17.1077 23.5766 17.034 23.9213 16.8896 24.1896C16.7437 24.4579 16.5487 24.6712 16.3046 24.828C16.0605 24.9847 15.7774 25.0963 15.4568 25.1641ZM27.3411 25.6231C26.4239 25.6231 25.7205 25.3915 25.2323 24.9282C24.7441 24.4664 24.4769 23.7193 24.4321 22.6925H32.9799C33.0405 21.7957 32.964 20.9371 32.7502 20.1151C32.5365 19.2931 32.1884 18.5616 31.7074 17.919C31.2264 17.2764 30.6111 16.7651 29.8629 16.3838C29.1133 16.0025 28.2351 15.8118 27.227 15.8118C26.3257 15.8118 25.5038 15.9686 24.7629 16.2821C24.0219 16.5956 23.3835 17.025 22.8491 17.5701C22.3147 18.1153 21.9016 18.7607 21.6112 19.5078C21.3209 20.2549 21.1765 21.0613 21.1765 21.9271C21.1765 22.8225 21.318 23.6444 21.5997 24.3916C21.8813 25.1387 22.2829 25.7798 22.8029 26.3179C23.3228 26.856 23.9569 27.2712 24.7051 27.5622C25.4533 27.8531 26.2939 27.9986 27.2255 27.9986C28.5702 27.9986 29.7156 27.6992 30.6631 27.1018C31.6106 26.5044 32.314 25.5115 32.7719 24.1218H29.9077C29.8008 24.4805 29.5105 24.8209 29.0368 25.1415C28.563 25.4621 27.9983 25.6231 27.3411 25.6231ZM27.1345 18.2071C27.9289 18.2071 28.5211 18.4161 28.9111 18.8341C29.2996 19.2522 29.5712 19.8651 29.7257 20.6701H24.4321C24.4465 20.447 24.4971 20.1928 24.5809 19.9089C24.6646 19.625 24.8091 19.3567 25.0156 19.1025C25.2222 18.8483 25.4966 18.6364 25.8404 18.4641C26.1827 18.2932 26.6145 18.2071 27.1345 18.2071ZM30.4883 12.8121H23.8746V14.6057H30.4883V12.8121Z" fill="white"/>
</g>
<defs>
<clipPath id="clip0_213_1775">
<rect width="40" height="40" rx="20" fill="white"/>
</clipPath>
</defs>
</svg>
