<svg width="40" height="40" viewBox="0 0 40 40" fill="none" xmlns="http://www.w3.org/2000/svg">
<g clip-path="url(#clip0_213_1779)">
<path fill-rule="evenodd" clip-rule="evenodd" d="M20 40C31.0457 40 40 31.0457 40 20C40 8.9543 31.0457 0 20 0C8.9543 0 0 8.9543 0 20C0 31.0457 8.9543 40 20 40ZM24.8537 10.2345C23.5864 10.1773 23.21 10.163 20.0035 10.163C16.8019 10.163 16.4207 10.1726 15.1534 10.2345C13.9813 10.2869 13.3476 10.487 12.9236 10.649C12.3614 10.8634 11.9612 11.1255 11.5419 11.5447C11.1227 11.964 10.8654 12.3642 10.6462 12.9264C10.4795 13.3504 10.2841 13.9841 10.2317 15.1562C10.1745 16.4235 10.1602 16.7999 10.1602 20.0064C10.1602 23.2128 10.1745 23.5892 10.2317 24.8565C10.2841 26.0286 10.4842 26.6623 10.6462 27.0863C10.8606 27.6485 11.1227 28.0487 11.5419 28.468C11.9612 28.8872 12.3614 29.1445 12.9236 29.3637C13.3476 29.5304 13.9813 29.7258 15.1534 29.7782C16.4207 29.8354 16.7971 29.8497 20.0035 29.8497C23.21 29.8497 23.5864 29.8354 24.8537 29.7782C26.0258 29.7258 26.6595 29.5257 27.0835 29.3637C27.6457 29.1493 28.0459 28.8872 28.4652 28.468C28.8844 28.0487 29.1417 27.6485 29.3609 27.0863C29.5276 26.6623 29.723 26.0286 29.7754 24.8565C29.8326 23.5892 29.8469 23.2128 29.8469 20.0064C29.8469 16.7999 29.8326 16.4235 29.7754 15.1562C29.723 13.9841 29.5229 13.3504 29.3609 12.9264C29.1465 12.3642 28.8844 11.964 28.4652 11.5447C28.0459 11.1255 27.6457 10.8682 27.0835 10.649C26.6595 10.4823 26.0258 10.2869 24.8537 10.2345ZM15.0533 8.07147C16.3349 8.01429 16.7447 8 20.0035 8C23.2624 8 23.6722 8.01429 24.9586 8.0667C26.2402 8.12387 27.1121 8.32875 27.8744 8.62414C28.6605 8.93383 29.3323 9.34357 29.9993 10.0106C30.6663 10.6776 31.0808 11.3446 31.3858 12.1355C31.6812 12.9026 31.886 13.7745 31.9432 15.0513C32.0004 16.333 32.0147 16.738 32.0147 20.0016C32.0147 23.2652 32.0004 23.6702 31.9432 24.9518C31.886 26.2335 31.6812 27.1053 31.3858 27.8677C31.0761 28.6538 30.6663 29.3256 29.9993 29.9926C29.3323 30.6596 28.6653 31.0741 27.8744 31.379C27.1073 31.6744 26.2354 31.8793 24.9586 31.9365C23.6769 31.9936 23.2719 32.0079 20.0083 32.0079C16.7447 32.0079 16.3397 31.9936 15.0581 31.9365C13.7764 31.8793 12.9046 31.6744 12.1422 31.379C11.3561 31.0693 10.6843 30.6596 10.0173 29.9926C9.35029 29.3256 8.93578 28.6585 8.63086 27.8677C8.33546 27.1006 8.13059 26.2287 8.07342 24.9518C8.01625 23.6702 8.00195 23.2605 8.00195 20.0016C8.00195 16.7427 8.01625 16.333 8.07342 15.0561C8.13059 13.7745 8.33546 12.9026 8.63086 12.1403C8.94055 11.3542 9.35029 10.6824 10.0173 10.0154C10.6843 9.34833 11.3513 8.93383 12.1422 8.6289C12.9046 8.33351 13.7764 8.12864 15.0533 8.07147ZM20.0031 13.8408C16.6013 13.8408 13.8379 16.5994 13.8379 20.006C13.8379 23.4125 16.5965 26.1711 20.0031 26.1711C23.4096 26.1711 26.1682 23.4125 26.1682 20.006C26.1682 16.5994 23.4096 13.8408 20.0031 13.8408ZM20.0031 24.0033C17.7924 24.0033 16.0009 22.2119 16.0009 20.0012C16.0009 17.7905 17.7924 15.9991 20.0031 15.9991C22.2138 15.9991 24.0052 17.7905 24.0052 20.0012C24.0052 22.2119 22.2138 24.0033 20.0031 24.0033ZM27.8504 13.5932C27.8504 14.3878 27.2062 15.032 26.4115 15.032C25.6169 15.032 24.9727 14.3878 24.9727 13.5932C24.9727 12.7985 25.6169 12.1543 26.4115 12.1543C27.2062 12.1543 27.8504 12.7985 27.8504 13.5932Z" fill="white"/>
</g>
<defs>
<clipPath id="clip0_213_1779">
<rect width="40" height="40" rx="20" fill="white"/>
</clipPath>
</defs>
</svg>
