<svg width="40" height="40" viewBox="0 0 40 40" fill="none" xmlns="http://www.w3.org/2000/svg">
<g clip-path="url(#clip0_213_1785)">
<path fill-rule="evenodd" clip-rule="evenodd" d="M20 40C31.0457 40 40 31.0457 40 20C40 8.9543 31.0457 0 20 0C8.9543 0 0 8.9543 0 20C0 31.0457 8.9543 40 20 40ZM11.0625 14.4043C11.4576 14.6706 11.923 14.8142 12.3998 14.8169C12.719 14.8234 13.0362 14.7657 13.3326 14.6473C13.629 14.5289 13.8984 14.3521 14.1249 14.1275C14.3514 13.903 14.5303 13.6352 14.6508 13.3402C14.7714 13.0452 14.8312 12.7289 14.8267 12.4104C14.8271 11.9345 14.6862 11.4692 14.4219 11.0732C14.1575 10.6772 13.7815 10.3682 13.3414 10.1852C12.9012 10.0022 12.4166 9.95345 11.9487 10.0451C11.4808 10.1367 11.0506 10.3646 10.7123 10.7C10.3741 11.0354 10.143 11.4632 10.0482 11.9296C9.95338 12.3959 9.99912 12.8799 10.1796 13.3203C10.3602 13.7607 10.6674 14.1379 11.0625 14.4043ZM10.3009 29.9884H14.5044V16.6634H10.3009V29.9884ZM29.9981 30H25.7965V22.7204C25.7965 20.5735 24.8821 19.9109 23.7016 19.9109C22.4551 19.9109 21.2319 20.8487 21.2319 22.7746V30H17.0284V16.6731H21.0708V18.5196H21.1251C21.5309 17.7 22.9521 16.2991 25.1209 16.2991C27.4663 16.2991 30 17.6884 30 21.7574L29.9981 30Z" fill="white"/>
</g>
<defs>
<clipPath id="clip0_213_1785">
<rect width="40" height="40" rx="20" fill="white"/>
</clipPath>
</defs>
</svg>
