<svg width="40" height="40" viewBox="0 0 40 40" fill="none" xmlns="http://www.w3.org/2000/svg">
<g clip-path="url(#clip0_213_1771)">
<path fill-rule="evenodd" clip-rule="evenodd" d="M20 40C31.0457 40 40 31.0457 40 20C40 8.9543 31.0457 0 20 0C8.9543 0 0 8.9543 0 20C0 31.0457 8.9543 40 20 40ZM30 13.4C30 11.6779 29.6532 10.3207 28.8747 9L22.1798 10.4083C22.6044 11.3277 22.8804 12.4441 22.8804 14.0859C22.8804 17.0776 20.8209 21.4776 19.1578 24.2796L17.3673 9.48159L10 10.204L13.3687 31H21.7764C25.4636 26.0017 30 18.8799 30 13.4Z" fill="white"/>
</g>
<defs>
<clipPath id="clip0_213_1771">
<rect width="40" height="40" rx="20" fill="white"/>
</clipPath>
</defs>
</svg>
